<svg width="53" height="75" viewBox="0 0 53 75" fill="none" xmlns="http://www.w3.org/2000/svg">
<path d="M45.0132 55.9197C45.4922 54.1318 44.9903 52.3191 43.85 51.0456C44.4622 50.4187 44.9426 49.6457 45.1856 48.7387C45.9352 45.9414 44.3015 43.0666 41.5419 42.3272L34.0366 40.3161C34.0328 40.3151 34.0294 40.3121 34.0256 40.3111C34.0227 40.3103 34.0183 40.3112 34.0144 40.3102L28.0238 38.705C28.3672 37.0754 29.4177 34.1402 32.6331 31.2313C34.0233 30.1192 36.6119 28.0507 35.2414 24.3137C34.7112 22.8734 33.4284 21.6217 31.8057 20.9664C30.1761 20.302 28.4181 20.3258 26.9867 21.0158C24.5807 22.1788 17.7947 27.9583 8.3456 36.2772C7.61655 36.9194 7.54694 38.0292 8.18694 38.7587C8.42618 39.0288 8.72711 39.2078 9.05069 39.2945C9.59934 39.4415 10.2107 39.3196 10.6687 38.9164C15.2702 34.8643 26.0501 25.3729 28.5155 24.1814C29.0474 23.9233 29.7866 23.935 30.4883 24.2255C31.1834 24.5059 31.7555 25.0174 31.9415 25.5249C32.3282 26.5778 32.1773 27.0944 30.3563 28.5548C24.3201 34.0125 24.3378 39.792 24.342 40.0354C24.3429 40.0667 24.3501 40.0976 24.353 40.1295C24.357 40.1958 24.3637 40.2597 24.3745 40.3236C24.384 40.3769 24.3975 40.4271 24.4114 40.4795C24.4272 40.5365 24.4451 40.5931 24.4668 40.6476C24.4866 40.6974 24.5091 40.7448 24.5344 40.793C24.5612 40.8478 24.5903 40.9012 24.6232 40.9524C24.649 40.9914 24.676 41.0297 24.7045 41.0664C24.7465 41.1221 24.7902 41.1753 24.8391 41.2246C24.8639 41.2519 24.8909 41.2747 24.9184 41.2997C24.9764 41.3535 25.0394 41.4046 25.1058 41.4503C25.1274 41.4664 25.1507 41.4799 25.173 41.4932C25.2486 41.5393 25.3272 41.5821 25.4108 41.618C25.4284 41.6258 25.4465 41.6317 25.4653 41.6388C25.5243 41.6618 25.5808 41.6904 25.6446 41.7075L28.4158 42.4501C28.091 42.9283 27.8228 43.4538 27.6649 44.043C27.3166 45.3431 27.501 46.6525 28.0565 47.7631C27.0198 48.4481 26.2057 49.4889 25.8576 50.7881C25.5719 51.8545 25.6372 52.9321 25.9756 53.8986C24.6269 54.5352 23.5417 55.7259 23.1232 57.2878C22.8607 58.2673 22.9056 59.2514 23.1739 60.1546C21.6824 60.7447 20.4655 62.0057 20.0152 63.6864C19.8705 64.2264 19.8401 64.7649 19.8649 65.2943C11.7052 62.6814 7.96542 60.3335 5.00404 57.5843C4.29181 56.9235 3.17821 56.9647 2.52051 57.6767C1.86088 58.3882 1.9011 59.5016 2.61262 60.1612C6.46439 63.737 11.3965 66.6694 23.5476 70.0537C23.5869 70.0652 23.6198 70.0854 23.6594 70.096C23.6933 70.1051 23.7272 70.1059 23.7625 70.1133C24.2154 70.2388 24.6563 70.3631 25.1296 70.49L29.0551 71.5418C32.1007 72.3579 35.1888 70.7472 35.938 67.9509C36.1169 67.2834 36.1382 66.609 36.0376 65.9567C38.299 65.9166 40.3688 64.3934 40.9897 62.0762C41.2065 61.2667 41.2039 60.4575 41.0517 59.6889C42.9047 59.2837 44.4846 57.8922 45.0132 55.9197ZM40.4594 52.9044C41.3461 53.142 41.8654 54.0866 41.6179 55.01C41.3702 55.9344 40.4483 56.4928 39.5616 56.2552L37.3486 55.6623L30.4114 53.8034C29.5256 53.5661 29.0064 52.6215 29.2541 51.6971C29.501 50.7756 30.4195 50.2184 31.3041 50.4523C31.306 50.4528 31.307 50.4531 31.3089 50.4536C31.3128 50.4546 31.3169 50.4547 31.3208 50.4557L36.6884 51.894L38.826 52.4667L40.4594 52.9044V52.9044ZM40.6334 45.7217C41.5201 45.9593 42.0393 46.9038 41.7916 47.8282C41.5444 48.7507 40.623 49.3072 39.7363 49.0696L37.5987 48.4968L32.2204 47.0557C32.2185 47.0552 32.2173 47.0559 32.2153 47.0554C31.3326 46.8147 30.8155 45.8738 31.0626 44.9513C31.309 44.0318 32.2244 43.4747 33.1069 43.705L40.6334 45.7217ZM29.9673 68.1452L26.0418 67.0933C25.497 66.9474 24.9859 66.8032 24.4695 66.6596C23.6485 66.3775 23.1761 65.4786 23.4131 64.5938C23.6608 63.6694 24.5825 63.112 25.4692 63.3496L30.8649 64.7953C32.0182 65.1044 32.7885 66.1318 32.5455 67.0388C32.3025 67.9458 31.1206 68.4542 29.9673 68.1452ZM35.5408 62.4092L27.6772 60.3022C26.7914 60.0649 26.2722 59.1203 26.5196 58.1969C26.7673 57.2725 27.6893 56.7141 28.575 56.9514L29.5013 57.1996L36.4386 59.0584C37.3253 59.296 37.8446 60.2406 37.5969 61.165C37.3494 62.0884 36.4275 62.6468 35.5408 62.4092Z" fill="white"/>
<path d="M45.2803 5.40302L42.2323 0.789024C41.6953 -0.0219765 40.6053 -0.242976 39.7953 0.291024C38.9853 0.826024 38.7633 1.91702 39.2973 2.72702L40.0923 3.92902C28.1473 1.42502 15.2283 1.55402 4.35831 4.33502C3.41931 4.57502 2.85131 5.53302 3.09131 6.47302C3.29431 7.26702 4.00931 7.79502 4.79331 7.79502C4.93731 7.79502 5.08431 7.77802 5.23031 7.74002C15.5273 5.10502 27.7713 4.99802 39.1433 7.34902L38.2353 7.94902C37.4243 8.48402 37.2023 9.57402 37.7363 10.384C38.0753 10.897 38.6343 11.174 39.2043 11.174C39.5373 11.174 39.8743 11.08 40.1713 10.883L44.7833 7.83802C45.1723 7.58102 45.4433 7.18002 45.5373 6.72402C45.6293 6.26702 45.5373 5.79202 45.2803 5.40302Z" fill="white"/>
</svg>
