<svg width="53" height="74" viewBox="0 0 53 74" fill="none" xmlns="http://www.w3.org/2000/svg">
<path d="M45.7232 41.1561C44.8038 40.8465 43.8076 41.3402 43.4951 42.2604C41.5361 48.0704 36.9471 61.6798 35.4071 63.9456C35.0764 64.4349 34.4366 64.7864 33.6784 64.8933C32.9341 64.9975 32.1828 64.8406 31.7693 64.4949C30.9077 63.7754 30.7803 63.2535 31.6271 61.0782C34.1256 53.3327 31.2204 48.3363 31.0954 48.1286C31.0787 48.101 31.056 48.0781 31.0388 48.0527C31.0022 47.9973 30.9642 47.9443 30.9219 47.8945C30.8882 47.8539 30.8502 47.8164 30.8135 47.7797C30.7711 47.7372 30.726 47.6965 30.6797 47.6592C30.6377 47.6259 30.5948 47.5971 30.5496 47.5678C30.4981 47.5339 30.4462 47.5023 30.3921 47.4743C30.35 47.4525 30.3077 47.4338 30.2647 47.4163C30.2005 47.389 30.136 47.3649 30.0688 47.3456C30.0339 47.3353 29.9989 47.3281 29.9614 47.3196C29.8844 47.3029 29.8066 47.2906 29.7272 47.284C29.6995 47.281 29.6704 47.2805 29.6415 47.281C29.5558 47.2781 29.4685 47.2808 29.3802 47.291C29.3591 47.2935 29.3364 47.2976 29.3156 47.3011C29.2529 47.3106 29.1928 47.3143 29.131 47.3309L14.3687 51.2864C13.3859 51.5477 12.3843 51.0127 12.1369 50.0893C12.0196 49.6517 12.0863 49.1897 12.3277 48.7885C12.5768 48.3698 12.9829 48.0695 13.4698 47.939L13.4707 47.9388L17.0495 46.9798C17.9864 46.7288 18.5436 45.7637 18.2926 44.8267C18.0412 43.8888 17.0764 43.3326 16.1395 43.5836L12.5617 44.5423C12.5607 44.5426 12.5597 44.5428 12.5588 44.5431C12.3202 44.607 12.0989 44.7046 11.8744 44.7979C11.7196 44.7959 11.5636 44.8087 11.4071 44.8506C10.4258 45.1136 9.42654 44.5759 9.17885 43.6515C8.93168 42.729 9.52817 41.7637 10.5095 41.5008L12.9543 40.8457L15.2426 40.2326L16.2201 39.9707C17.157 39.7196 17.7135 38.7557 17.4622 37.8178C17.2112 36.8809 16.2473 36.3244 15.3104 36.5754L14.3328 36.8373L12.0446 37.4505C11.0622 37.7137 10.0613 37.1775 9.81415 36.255C9.5662 35.3297 10.1644 34.3629 11.1467 34.0997L16.0227 32.7932C16.9606 32.5419 17.5171 31.578 17.2658 30.6401C17.0147 29.7031 16.0506 29.1457 15.1127 29.397L14.1651 29.6509C12.9017 29.9894 11.6298 29.5082 11.3865 28.6002C11.1432 27.6923 12.0041 26.6396 13.2675 26.301L14.8546 25.8758C28.2152 22.2958 34.0384 22.2253 39.1058 23.2714C40.0537 23.4667 40.9865 22.8565 41.182 21.9055C41.3776 20.9545 40.7662 20.025 39.8161 19.8292C34.2458 18.6798 27.9749 18.7212 13.9448 22.4806L12.3578 22.9058C9.20115 23.7516 7.24104 26.7139 7.99058 29.5112C8.16891 30.1767 8.49325 30.769 8.91398 31.2805C6.89042 32.4604 5.79569 34.8388 6.41918 37.1657C6.62882 37.9481 7.02206 38.6275 7.52512 39.2029C5.99743 40.4871 5.24372 42.5463 5.78414 44.5632C6.21766 46.1811 7.39102 47.3958 8.84742 48.0015C8.5187 48.9654 8.47568 49.9988 8.74408 51.0004C9.4931 53.7958 12.4244 55.4474 15.28 54.6833L28.574 51.1212C29.0911 52.7032 29.6499 55.7701 28.32 59.898C27.6721 61.5562 26.4648 64.6428 29.5202 67.1939C30.6993 68.1752 32.438 68.6173 34.1709 68.3734C34.4463 68.3348 34.7161 68.2791 34.9788 68.2087C36.3746 67.8347 37.5649 67.0261 38.3174 65.9207C39.8193 63.7096 42.8067 55.3123 46.8294 43.3837C47.1368 42.4638 46.6427 41.4657 45.7232 41.1561Z" fill="white"/>
<path d="M4.957 5.40302L8.00499 0.789024C8.54199 -0.0219765 9.632 -0.242976 10.442 0.291024C11.252 0.826024 11.474 1.91702 10.94 2.72702L10.145 3.92902C22.09 1.42502 35.009 1.55402 45.879 4.33502C46.818 4.57502 47.386 5.53302 47.146 6.47302C46.943 7.26702 46.228 7.79502 45.444 7.79502C45.3 7.79502 45.153 7.77802 45.007 7.74002C34.71 5.10502 22.466 4.99802 11.094 7.34902L12.002 7.94902C12.813 8.48402 13.035 9.57402 12.501 10.384C12.162 10.897 11.603 11.174 11.033 11.174C10.7 11.174 10.363 11.08 10.066 10.883L5.454 7.83802C5.065 7.58102 4.79399 7.18002 4.69999 6.72402C4.60799 6.26702 4.7 5.79202 4.957 5.40302Z" fill="white"/>
</svg>
